<svg width="1694" height="1619" viewBox="0 0 1694 1619" fill="none" xmlns="http://www.w3.org/2000/svg">
<path d="M176.458 1203.83H166.458V1213.83V1348.7V1358.7H176.458H1517.54H1527.54V1348.7V1213.83V1203.83H1517.54H176.458Z" fill="black" stroke="white" stroke-width="20"/>
<path d="M60.583 1551.01V1561.01H70.583H1623.42H1633.42V1551.01V1483.57C1633.42 1462.88 1624.81 1443.14 1609.65 1428.66C1594.51 1414.19 1574.06 1406.14 1552.83 1406.14H141.166C119.938 1406.14 99.4921 1414.19 84.3484 1428.66C69.1892 1443.14 60.583 1462.88 60.583 1483.57V1551.01Z" fill="black" stroke="white" stroke-width="20"/>
<path d="M352.917 596.916H342.917V606.916V1146.4V1156.4H352.917H494.084H504.084V1146.4V606.916V596.916H494.084H352.917Z" fill="black" stroke="white" stroke-width="20"/>
<path d="M786.417 616.916H907.584V1136.4H786.417V616.916Z" fill="black" stroke="white" stroke-width="20"/>
<path d="M1199.92 596.916H1189.92V606.916V1146.4V1156.4H1199.92H1341.08H1351.08V1146.4V606.916V596.916H1341.08H1199.92Z" fill="black" stroke="white" stroke-width="20"/>
<path d="M1589.19 375.497L1588.87 375.333L1588.54 375.192L850.948 58.2474L847 56.5509L843.052 58.2474L105.456 375.192L105.128 375.333L104.811 375.497C91.7874 382.231 80.8024 392.166 73.0141 404.342C65.2232 416.522 60.9211 430.494 60.5857 444.838L60.583 444.955V445.072V472.046C60.583 492.734 69.1892 512.477 84.3484 526.96C99.4921 541.428 119.938 549.481 141.166 549.481H1552.83C1574.06 549.481 1594.51 541.428 1609.65 526.96C1624.81 512.477 1633.42 492.734 1633.42 472.046V445.072V444.955L1633.41 444.838C1633.08 430.494 1628.78 416.522 1620.99 404.342C1613.2 392.166 1602.21 382.231 1589.19 375.497Z" fill="black" stroke="white" stroke-width="20"/>
</svg>
